<mxfile host="Electron" agent="Mozilla/5.0 (Macintosh; Intel Mac OS X 10_15_7) AppleWebKit/537.36 (KHTML, like Gecko) draw.io/26.0.4 Chrome/128.0.6613.186 Electron/32.2.5 Safari/537.36" version="26.0.4" pages="4">
  <diagram id="O8us8HmFzU8xyzpe_9pT" name="Page-2">
    <mxGraphModel dx="1266" dy="675" grid="1" gridSize="10" guides="1" tooltips="1" connect="1" arrows="1" fold="1" page="1" pageScale="1" pageWidth="850" pageHeight="1100" math="0" shadow="0">
      <root>
        <mxCell id="0" />
        <mxCell id="1" parent="0" />
        <mxCell id="_KBFBEJGRD-MAuUr_4h1-1" value="Runway" style="swimlane;childLayout=stackLayout;horizontal=1;startSize=50;horizontalStack=0;rounded=1;fontSize=14;fontStyle=0;strokeWidth=2;resizeParent=0;resizeLast=1;shadow=0;dashed=0;align=center;arcSize=4;whiteSpace=wrap;html=1;" parent="1" vertex="1">
          <mxGeometry x="30" y="160" width="150" height="150" as="geometry" />
        </mxCell>
        <mxCell id="_KBFBEJGRD-MAuUr_4h1-2" value="&lt;div style=&quot;&quot;&gt;&lt;span style=&quot;background-color: transparent; color: light-dark(rgb(0, 0, 0), rgb(255, 255, 255));&quot;&gt;Latitude {PPK}&lt;/span&gt;&lt;br&gt;&lt;/div&gt;&lt;div style=&quot;&quot;&gt;Longitude {PPK}&lt;/div&gt;&lt;div style=&quot;&quot;&gt;&lt;div&gt;&lt;span style=&quot;background-color: transparent; color: light-dark(rgb(0, 0, 0), rgb(255, 255, 255));&quot;&gt;Airport_name {PAK}&lt;/span&gt;&lt;/div&gt;&lt;div&gt;Runway_number {PAK}&lt;/div&gt;&lt;/div&gt;&lt;div style=&quot;&quot;&gt;Length_of_runway&amp;nbsp;&lt;/div&gt;&lt;div style=&quot;&quot;&gt;Width_of_runway&lt;/div&gt;" style="align=center;strokeColor=none;fillColor=none;spacingLeft=4;fontSize=12;verticalAlign=top;resizable=0;rotatable=0;part=1;html=1;" parent="_KBFBEJGRD-MAuUr_4h1-1" vertex="1">
          <mxGeometry y="50" width="150" height="100" as="geometry" />
        </mxCell>
        <mxCell id="_KBFBEJGRD-MAuUr_4h1-3" style="edgeStyle=orthogonalEdgeStyle;rounded=0;orthogonalLoop=1;jettySize=auto;html=1;exitX=0.5;exitY=1;exitDx=0;exitDy=0;" parent="_KBFBEJGRD-MAuUr_4h1-1" source="_KBFBEJGRD-MAuUr_4h1-2" target="_KBFBEJGRD-MAuUr_4h1-2" edge="1">
          <mxGeometry relative="1" as="geometry" />
        </mxCell>
        <mxCell id="mgW0jpJ0W5bPhkutJU1L-1" value="Airport" style="swimlane;childLayout=stackLayout;horizontal=1;startSize=50;horizontalStack=0;rounded=1;fontSize=14;fontStyle=0;strokeWidth=2;resizeParent=0;resizeLast=1;shadow=0;dashed=0;align=center;arcSize=4;whiteSpace=wrap;html=1;" parent="1" vertex="1">
          <mxGeometry x="350" y="160" width="185" height="150" as="geometry" />
        </mxCell>
        <mxCell id="mgW0jpJ0W5bPhkutJU1L-2" value="Airport_name {PPK}&lt;div&gt;Airport_abbreviation {PPK}&lt;/div&gt;&lt;div&gt;City_name&lt;/div&gt;&lt;div&gt;Country_name&lt;/div&gt;" style="align=center;strokeColor=none;fillColor=none;spacingLeft=4;fontSize=12;verticalAlign=top;resizable=0;rotatable=0;part=1;html=1;" parent="mgW0jpJ0W5bPhkutJU1L-1" vertex="1">
          <mxGeometry y="50" width="185" height="100" as="geometry" />
        </mxCell>
        <mxCell id="mgW0jpJ0W5bPhkutJU1L-3" style="rounded=0;orthogonalLoop=1;jettySize=auto;html=1;entryX=1;entryY=0.5;entryDx=0;entryDy=0;endArrow=none;endFill=0;" parent="1" source="mgW0jpJ0W5bPhkutJU1L-2" target="_KBFBEJGRD-MAuUr_4h1-2" edge="1">
          <mxGeometry relative="1" as="geometry" />
        </mxCell>
        <mxCell id="mgW0jpJ0W5bPhkutJU1L-4" value="has many" style="edgeLabel;html=1;align=center;verticalAlign=middle;resizable=0;points=[];" parent="mgW0jpJ0W5bPhkutJU1L-3" vertex="1" connectable="0">
          <mxGeometry x="0.1333" y="-1" relative="1" as="geometry">
            <mxPoint as="offset" />
          </mxGeometry>
        </mxCell>
        <mxCell id="mgW0jpJ0W5bPhkutJU1L-8" value="" style="verticalLabelPosition=bottom;verticalAlign=top;html=1;shape=mxgraph.basic.acute_triangle;dx=0.5;rotation=-90;fillColor=#000000;" parent="1" vertex="1">
          <mxGeometry x="230" y="225" width="30" height="20" as="geometry" />
        </mxCell>
        <mxCell id="Imjk2W565dsl2KE7XFUn-1" value="1..*" style="text;html=1;align=center;verticalAlign=middle;resizable=0;points=[];autosize=1;strokeColor=none;fillColor=none;" parent="1" vertex="1">
          <mxGeometry x="170" y="238" width="40" height="30" as="geometry" />
        </mxCell>
        <mxCell id="Imjk2W565dsl2KE7XFUn-2" value="1..1" style="text;html=1;align=center;verticalAlign=middle;resizable=0;points=[];autosize=1;strokeColor=none;fillColor=none;" parent="1" vertex="1">
          <mxGeometry x="310" y="238" width="40" height="30" as="geometry" />
        </mxCell>
        <mxCell id="dNsDR7f_WIx2ex0oO1Vx-1" value="Airplane" style="swimlane;childLayout=stackLayout;horizontal=1;startSize=50;horizontalStack=0;rounded=1;fontSize=14;fontStyle=0;strokeWidth=2;resizeParent=0;resizeLast=1;shadow=0;dashed=0;align=center;arcSize=4;whiteSpace=wrap;html=1;" parent="1" vertex="1">
          <mxGeometry x="30" y="470" width="160" height="130" as="geometry" />
        </mxCell>
        <mxCell id="dNsDR7f_WIx2ex0oO1Vx-2" value="Airplane_id {PK}&lt;div&gt;Model_name&lt;/div&gt;&lt;div&gt;Last_service_date&lt;/div&gt;" style="align=center;strokeColor=none;fillColor=none;spacingLeft=4;fontSize=12;verticalAlign=top;resizable=0;rotatable=0;part=1;html=1;" parent="dNsDR7f_WIx2ex0oO1Vx-1" vertex="1">
          <mxGeometry y="50" width="160" height="80" as="geometry" />
        </mxCell>
        <mxCell id="dNsDR7f_WIx2ex0oO1Vx-3" style="edgeStyle=orthogonalEdgeStyle;rounded=0;orthogonalLoop=1;jettySize=auto;html=1;endArrow=none;endFill=0;" parent="1" source="dNsDR7f_WIx2ex0oO1Vx-1" target="_KBFBEJGRD-MAuUr_4h1-2" edge="1">
          <mxGeometry relative="1" as="geometry" />
        </mxCell>
        <mxCell id="dNsDR7f_WIx2ex0oO1Vx-4" value="lands on" style="edgeLabel;html=1;align=center;verticalAlign=middle;resizable=0;points=[];" parent="dNsDR7f_WIx2ex0oO1Vx-3" vertex="1" connectable="0">
          <mxGeometry x="-0.0303" y="-2" relative="1" as="geometry">
            <mxPoint as="offset" />
          </mxGeometry>
        </mxCell>
        <mxCell id="dNsDR7f_WIx2ex0oO1Vx-5" value="" style="verticalLabelPosition=bottom;verticalAlign=top;html=1;shape=mxgraph.basic.acute_triangle;dx=0.5;rotation=-90;fillColor=#000000;direction=south;" parent="1" vertex="1">
          <mxGeometry x="60" y="370" width="20" height="30" as="geometry" />
        </mxCell>
        <mxCell id="dNsDR7f_WIx2ex0oO1Vx-12" style="edgeStyle=orthogonalEdgeStyle;rounded=0;orthogonalLoop=1;jettySize=auto;html=1;endArrow=none;endFill=0;dashed=1;" parent="1" source="dNsDR7f_WIx2ex0oO1Vx-8" edge="1">
          <mxGeometry relative="1" as="geometry">
            <mxPoint x="130" y="390" as="targetPoint" />
          </mxGeometry>
        </mxCell>
        <mxCell id="dNsDR7f_WIx2ex0oO1Vx-8" value="" style="swimlane;childLayout=stackLayout;horizontal=1;startSize=50;horizontalStack=0;rounded=1;fontSize=14;fontStyle=0;strokeWidth=2;resizeParent=0;resizeLast=1;shadow=0;dashed=0;align=center;arcSize=4;whiteSpace=wrap;html=1;" parent="1" vertex="1">
          <mxGeometry x="230" y="350" width="120" height="100" as="geometry" />
        </mxCell>
        <mxCell id="dNsDR7f_WIx2ex0oO1Vx-9" value="Date_of_touchdown&amp;nbsp;&lt;div&gt;Time_of_touchdown&lt;/div&gt;" style="align=center;strokeColor=none;fillColor=none;spacingLeft=4;fontSize=12;verticalAlign=top;resizable=0;rotatable=0;part=1;html=1;" parent="dNsDR7f_WIx2ex0oO1Vx-8" vertex="1">
          <mxGeometry y="50" width="120" height="50" as="geometry" />
        </mxCell>
        <mxCell id="dNsDR7f_WIx2ex0oO1Vx-13" value="1..*" style="text;html=1;align=center;verticalAlign=middle;resizable=0;points=[];autosize=1;strokeColor=none;fillColor=none;" parent="1" vertex="1">
          <mxGeometry x="100" y="310" width="40" height="30" as="geometry" />
        </mxCell>
        <mxCell id="dNsDR7f_WIx2ex0oO1Vx-14" value="1..*" style="text;html=1;align=center;verticalAlign=middle;resizable=0;points=[];autosize=1;strokeColor=none;fillColor=none;" parent="1" vertex="1">
          <mxGeometry x="110" y="438" width="40" height="30" as="geometry" />
        </mxCell>
        <mxCell id="vYYmwCZIo9E6xpWWP1u2-1" value="&lt;b&gt;&lt;font style=&quot;font-size: 24px;&quot;&gt;4.&lt;/font&gt;&lt;/b&gt;" style="text;html=1;align=center;verticalAlign=middle;resizable=0;points=[];autosize=1;strokeColor=none;fillColor=none;" parent="1" vertex="1">
          <mxGeometry x="40" y="93" width="40" height="40" as="geometry" />
        </mxCell>
        <mxCell id="vYYmwCZIo9E6xpWWP1u2-2" value="Airline" style="swimlane;childLayout=stackLayout;horizontal=1;startSize=50;horizontalStack=0;rounded=1;fontSize=14;fontStyle=0;strokeWidth=2;resizeParent=0;resizeLast=1;shadow=0;dashed=0;align=center;arcSize=4;whiteSpace=wrap;html=1;" parent="1" vertex="1">
          <mxGeometry x="320" y="510" width="160" height="120" as="geometry" />
        </mxCell>
        <mxCell id="vYYmwCZIo9E6xpWWP1u2-3" value="Airline_name {PPK}&lt;div&gt;Airline_abbreviation {PPK}&lt;/div&gt;&lt;div&gt;Hub_city&lt;/div&gt;&lt;div&gt;Hub_country&lt;/div&gt;" style="align=left;strokeColor=none;fillColor=none;spacingLeft=4;fontSize=12;verticalAlign=top;resizable=0;rotatable=0;part=1;html=1;" parent="vYYmwCZIo9E6xpWWP1u2-2" vertex="1">
          <mxGeometry y="50" width="160" height="70" as="geometry" />
        </mxCell>
        <mxCell id="M52vkQaKcQwZutn-drsV-1" style="edgeStyle=orthogonalEdgeStyle;rounded=0;orthogonalLoop=1;jettySize=auto;html=1;entryX=1;entryY=0.5;entryDx=0;entryDy=0;endArrow=none;endFill=0;" parent="1" source="vYYmwCZIo9E6xpWWP1u2-3" target="dNsDR7f_WIx2ex0oO1Vx-2" edge="1">
          <mxGeometry relative="1" as="geometry" />
        </mxCell>
        <mxCell id="M52vkQaKcQwZutn-drsV-2" value="owns" style="edgeLabel;html=1;align=center;verticalAlign=middle;resizable=0;points=[];" parent="M52vkQaKcQwZutn-drsV-1" vertex="1" connectable="0">
          <mxGeometry x="0.2364" y="1" relative="1" as="geometry">
            <mxPoint as="offset" />
          </mxGeometry>
        </mxCell>
        <mxCell id="M52vkQaKcQwZutn-drsV-3" value="" style="verticalLabelPosition=bottom;verticalAlign=top;html=1;shape=mxgraph.basic.acute_triangle;dx=0.5;rotation=-90;fillColor=#000000;" parent="1" vertex="1">
          <mxGeometry x="230" y="525" width="30" height="20" as="geometry" />
        </mxCell>
        <mxCell id="M52vkQaKcQwZutn-drsV-4" value="1..*" style="text;html=1;align=center;verticalAlign=middle;resizable=0;points=[];autosize=1;strokeColor=none;fillColor=none;" parent="1" vertex="1">
          <mxGeometry x="180" y="528" width="40" height="30" as="geometry" />
        </mxCell>
        <mxCell id="cUz2aD1p0MNV7sHQOerA-1" value="1..1" style="text;html=1;align=center;verticalAlign=middle;resizable=0;points=[];autosize=1;strokeColor=none;fillColor=none;" parent="1" vertex="1">
          <mxGeometry x="280" y="570" width="40" height="30" as="geometry" />
        </mxCell>
      </root>
    </mxGraphModel>
  </diagram>
  <diagram name="Copy of Page-2" id="5xxd7QoQvRlLIsgS2vMv">
    <mxGraphModel dx="1266" dy="675" grid="1" gridSize="10" guides="1" tooltips="1" connect="1" arrows="1" fold="1" page="1" pageScale="1" pageWidth="850" pageHeight="1100" math="0" shadow="0">
      <root>
        <mxCell id="DL7w5RJydz2FNYm2HdWI-0" />
        <mxCell id="DL7w5RJydz2FNYm2HdWI-1" parent="DL7w5RJydz2FNYm2HdWI-0" />
        <mxCell id="DL7w5RJydz2FNYm2HdWI-2" value="Runway" style="swimlane;childLayout=stackLayout;horizontal=1;startSize=50;horizontalStack=0;rounded=1;fontSize=14;fontStyle=0;strokeWidth=2;resizeParent=0;resizeLast=1;shadow=0;dashed=0;align=center;arcSize=4;whiteSpace=wrap;html=1;" parent="DL7w5RJydz2FNYm2HdWI-1" vertex="1">
          <mxGeometry x="30" y="160" width="150" height="150" as="geometry" />
        </mxCell>
        <mxCell id="DL7w5RJydz2FNYm2HdWI-3" value="&lt;div style=&quot;&quot;&gt;&lt;span style=&quot;background-color: transparent; color: light-dark(rgb(0, 0, 0), rgb(255, 255, 255));&quot;&gt;Latitude {PPK}&lt;/span&gt;&lt;br&gt;&lt;/div&gt;&lt;div style=&quot;&quot;&gt;Longitude {PPK}&lt;/div&gt;&lt;div style=&quot;&quot;&gt;&lt;div&gt;&lt;span style=&quot;background-color: transparent; color: light-dark(rgb(0, 0, 0), rgb(255, 255, 255));&quot;&gt;Airport_name {PAK}&lt;/span&gt;&lt;/div&gt;&lt;div&gt;Runway_number {PAK}&lt;/div&gt;&lt;/div&gt;&lt;div style=&quot;&quot;&gt;Length_of_runway&amp;nbsp;&lt;/div&gt;&lt;div style=&quot;&quot;&gt;Width_of_runway&lt;/div&gt;" style="align=center;strokeColor=none;fillColor=none;spacingLeft=4;fontSize=12;verticalAlign=top;resizable=0;rotatable=0;part=1;html=1;" parent="DL7w5RJydz2FNYm2HdWI-2" vertex="1">
          <mxGeometry y="50" width="150" height="100" as="geometry" />
        </mxCell>
        <mxCell id="DL7w5RJydz2FNYm2HdWI-4" style="edgeStyle=orthogonalEdgeStyle;rounded=0;orthogonalLoop=1;jettySize=auto;html=1;exitX=0.5;exitY=1;exitDx=0;exitDy=0;" parent="DL7w5RJydz2FNYm2HdWI-2" source="DL7w5RJydz2FNYm2HdWI-3" target="DL7w5RJydz2FNYm2HdWI-3" edge="1">
          <mxGeometry relative="1" as="geometry" />
        </mxCell>
        <mxCell id="DL7w5RJydz2FNYm2HdWI-5" value="Airport" style="swimlane;childLayout=stackLayout;horizontal=1;startSize=50;horizontalStack=0;rounded=1;fontSize=14;fontStyle=0;strokeWidth=2;resizeParent=0;resizeLast=1;shadow=0;dashed=0;align=center;arcSize=4;whiteSpace=wrap;html=1;" parent="DL7w5RJydz2FNYm2HdWI-1" vertex="1">
          <mxGeometry x="350" y="160" width="185" height="150" as="geometry" />
        </mxCell>
        <mxCell id="DL7w5RJydz2FNYm2HdWI-6" value="Airport_name {PPK}&lt;div&gt;Airport_abbreviation {PPK}&lt;/div&gt;&lt;div&gt;City_name&lt;/div&gt;&lt;div&gt;Country_name&lt;/div&gt;" style="align=center;strokeColor=none;fillColor=none;spacingLeft=4;fontSize=12;verticalAlign=top;resizable=0;rotatable=0;part=1;html=1;" parent="DL7w5RJydz2FNYm2HdWI-5" vertex="1">
          <mxGeometry y="50" width="185" height="100" as="geometry" />
        </mxCell>
        <mxCell id="DL7w5RJydz2FNYm2HdWI-7" style="rounded=0;orthogonalLoop=1;jettySize=auto;html=1;entryX=1;entryY=0.5;entryDx=0;entryDy=0;endArrow=none;endFill=0;" parent="DL7w5RJydz2FNYm2HdWI-1" source="DL7w5RJydz2FNYm2HdWI-6" target="DL7w5RJydz2FNYm2HdWI-3" edge="1">
          <mxGeometry relative="1" as="geometry" />
        </mxCell>
        <mxCell id="DL7w5RJydz2FNYm2HdWI-8" value="has many" style="edgeLabel;html=1;align=center;verticalAlign=middle;resizable=0;points=[];" parent="DL7w5RJydz2FNYm2HdWI-7" vertex="1" connectable="0">
          <mxGeometry x="0.1333" y="-1" relative="1" as="geometry">
            <mxPoint as="offset" />
          </mxGeometry>
        </mxCell>
        <mxCell id="DL7w5RJydz2FNYm2HdWI-9" value="" style="verticalLabelPosition=bottom;verticalAlign=top;html=1;shape=mxgraph.basic.acute_triangle;dx=0.5;rotation=-90;fillColor=#000000;" parent="DL7w5RJydz2FNYm2HdWI-1" vertex="1">
          <mxGeometry x="230" y="225" width="30" height="20" as="geometry" />
        </mxCell>
        <mxCell id="DL7w5RJydz2FNYm2HdWI-10" value="1..*" style="text;html=1;align=center;verticalAlign=middle;resizable=0;points=[];autosize=1;strokeColor=none;fillColor=none;" parent="DL7w5RJydz2FNYm2HdWI-1" vertex="1">
          <mxGeometry x="170" y="238" width="40" height="30" as="geometry" />
        </mxCell>
        <mxCell id="DL7w5RJydz2FNYm2HdWI-11" value="1..1" style="text;html=1;align=center;verticalAlign=middle;resizable=0;points=[];autosize=1;strokeColor=none;fillColor=none;" parent="DL7w5RJydz2FNYm2HdWI-1" vertex="1">
          <mxGeometry x="310" y="238" width="40" height="30" as="geometry" />
        </mxCell>
        <mxCell id="DL7w5RJydz2FNYm2HdWI-12" value="Airplane" style="swimlane;childLayout=stackLayout;horizontal=1;startSize=50;horizontalStack=0;rounded=1;fontSize=14;fontStyle=0;strokeWidth=2;resizeParent=0;resizeLast=1;shadow=0;dashed=0;align=center;arcSize=4;whiteSpace=wrap;html=1;" parent="DL7w5RJydz2FNYm2HdWI-1" vertex="1">
          <mxGeometry x="30" y="470" width="160" height="130" as="geometry" />
        </mxCell>
        <mxCell id="DL7w5RJydz2FNYm2HdWI-13" value="Airplane_id {PK}&lt;div&gt;Model_name&lt;/div&gt;&lt;div&gt;Last_service_date&lt;/div&gt;" style="align=center;strokeColor=none;fillColor=none;spacingLeft=4;fontSize=12;verticalAlign=top;resizable=0;rotatable=0;part=1;html=1;" parent="DL7w5RJydz2FNYm2HdWI-12" vertex="1">
          <mxGeometry y="50" width="160" height="80" as="geometry" />
        </mxCell>
        <mxCell id="DL7w5RJydz2FNYm2HdWI-14" style="edgeStyle=orthogonalEdgeStyle;rounded=0;orthogonalLoop=1;jettySize=auto;html=1;endArrow=none;endFill=0;" parent="DL7w5RJydz2FNYm2HdWI-1" source="DL7w5RJydz2FNYm2HdWI-12" target="DL7w5RJydz2FNYm2HdWI-3" edge="1">
          <mxGeometry relative="1" as="geometry" />
        </mxCell>
        <mxCell id="DL7w5RJydz2FNYm2HdWI-15" value="lands on" style="edgeLabel;html=1;align=center;verticalAlign=middle;resizable=0;points=[];" parent="DL7w5RJydz2FNYm2HdWI-14" vertex="1" connectable="0">
          <mxGeometry x="-0.0303" y="-2" relative="1" as="geometry">
            <mxPoint as="offset" />
          </mxGeometry>
        </mxCell>
        <mxCell id="DL7w5RJydz2FNYm2HdWI-16" value="" style="verticalLabelPosition=bottom;verticalAlign=top;html=1;shape=mxgraph.basic.acute_triangle;dx=0.5;rotation=-90;fillColor=#000000;direction=south;" parent="DL7w5RJydz2FNYm2HdWI-1" vertex="1">
          <mxGeometry x="60" y="370" width="20" height="30" as="geometry" />
        </mxCell>
        <mxCell id="DL7w5RJydz2FNYm2HdWI-17" style="edgeStyle=orthogonalEdgeStyle;rounded=0;orthogonalLoop=1;jettySize=auto;html=1;endArrow=none;endFill=0;dashed=1;" parent="DL7w5RJydz2FNYm2HdWI-1" source="DL7w5RJydz2FNYm2HdWI-18" edge="1">
          <mxGeometry relative="1" as="geometry">
            <mxPoint x="130" y="390" as="targetPoint" />
          </mxGeometry>
        </mxCell>
        <mxCell id="DL7w5RJydz2FNYm2HdWI-18" value="" style="swimlane;childLayout=stackLayout;horizontal=1;startSize=50;horizontalStack=0;rounded=1;fontSize=14;fontStyle=0;strokeWidth=2;resizeParent=0;resizeLast=1;shadow=0;dashed=0;align=center;arcSize=4;whiteSpace=wrap;html=1;" parent="DL7w5RJydz2FNYm2HdWI-1" vertex="1">
          <mxGeometry x="230" y="350" width="120" height="100" as="geometry" />
        </mxCell>
        <mxCell id="DL7w5RJydz2FNYm2HdWI-19" value="Date_of_touchdown&amp;nbsp;&lt;div&gt;Time_of_touchdown&lt;/div&gt;" style="align=center;strokeColor=none;fillColor=none;spacingLeft=4;fontSize=12;verticalAlign=top;resizable=0;rotatable=0;part=1;html=1;" parent="DL7w5RJydz2FNYm2HdWI-18" vertex="1">
          <mxGeometry y="50" width="120" height="50" as="geometry" />
        </mxCell>
        <mxCell id="DL7w5RJydz2FNYm2HdWI-20" value="1..*" style="text;html=1;align=center;verticalAlign=middle;resizable=0;points=[];autosize=1;strokeColor=none;fillColor=none;" parent="DL7w5RJydz2FNYm2HdWI-1" vertex="1">
          <mxGeometry x="100" y="310" width="40" height="30" as="geometry" />
        </mxCell>
        <mxCell id="DL7w5RJydz2FNYm2HdWI-21" value="1..*" style="text;html=1;align=center;verticalAlign=middle;resizable=0;points=[];autosize=1;strokeColor=none;fillColor=none;" parent="DL7w5RJydz2FNYm2HdWI-1" vertex="1">
          <mxGeometry x="110" y="438" width="40" height="30" as="geometry" />
        </mxCell>
        <mxCell id="DL7w5RJydz2FNYm2HdWI-22" value="&lt;b&gt;&lt;font style=&quot;font-size: 24px;&quot;&gt;3.&lt;/font&gt;&lt;/b&gt;" style="text;html=1;align=center;verticalAlign=middle;resizable=0;points=[];autosize=1;strokeColor=none;fillColor=none;" parent="DL7w5RJydz2FNYm2HdWI-1" vertex="1">
          <mxGeometry x="40" y="93" width="40" height="40" as="geometry" />
        </mxCell>
      </root>
    </mxGraphModel>
  </diagram>
  <diagram name="Copy of Copy of Page-2" id="hjCPyt1BQXUS408YWv_F">
    <mxGraphModel dx="1266" dy="675" grid="1" gridSize="10" guides="1" tooltips="1" connect="1" arrows="1" fold="1" page="1" pageScale="1" pageWidth="850" pageHeight="1100" math="0" shadow="0">
      <root>
        <mxCell id="q9Yz6l3v0b8t_S9yL232-0" />
        <mxCell id="q9Yz6l3v0b8t_S9yL232-1" parent="q9Yz6l3v0b8t_S9yL232-0" />
        <mxCell id="q9Yz6l3v0b8t_S9yL232-2" value="Runway" style="swimlane;childLayout=stackLayout;horizontal=1;startSize=50;horizontalStack=0;rounded=1;fontSize=14;fontStyle=0;strokeWidth=2;resizeParent=0;resizeLast=1;shadow=0;dashed=0;align=center;arcSize=4;whiteSpace=wrap;html=1;" parent="q9Yz6l3v0b8t_S9yL232-1" vertex="1">
          <mxGeometry x="30" y="160" width="150" height="150" as="geometry" />
        </mxCell>
        <mxCell id="q9Yz6l3v0b8t_S9yL232-3" value="&lt;div style=&quot;&quot;&gt;&lt;span style=&quot;background-color: transparent; color: light-dark(rgb(0, 0, 0), rgb(255, 255, 255));&quot;&gt;Latitude {PPK}&lt;/span&gt;&lt;br&gt;&lt;/div&gt;&lt;div style=&quot;&quot;&gt;Longitude {PPK}&lt;/div&gt;&lt;div style=&quot;&quot;&gt;&lt;div&gt;&lt;span style=&quot;background-color: transparent; color: light-dark(rgb(0, 0, 0), rgb(255, 255, 255));&quot;&gt;Airport_name {PAK}&lt;/span&gt;&lt;/div&gt;&lt;div&gt;Runway_number {PAK}&lt;/div&gt;&lt;/div&gt;&lt;div style=&quot;&quot;&gt;Length_of_runway&amp;nbsp;&lt;/div&gt;&lt;div style=&quot;&quot;&gt;Width_of_runway&lt;/div&gt;" style="align=center;strokeColor=none;fillColor=none;spacingLeft=4;fontSize=12;verticalAlign=top;resizable=0;rotatable=0;part=1;html=1;" parent="q9Yz6l3v0b8t_S9yL232-2" vertex="1">
          <mxGeometry y="50" width="150" height="100" as="geometry" />
        </mxCell>
        <mxCell id="q9Yz6l3v0b8t_S9yL232-4" style="edgeStyle=orthogonalEdgeStyle;rounded=0;orthogonalLoop=1;jettySize=auto;html=1;exitX=0.5;exitY=1;exitDx=0;exitDy=0;" parent="q9Yz6l3v0b8t_S9yL232-2" source="q9Yz6l3v0b8t_S9yL232-3" target="q9Yz6l3v0b8t_S9yL232-3" edge="1">
          <mxGeometry relative="1" as="geometry" />
        </mxCell>
        <mxCell id="q9Yz6l3v0b8t_S9yL232-5" value="Airport" style="swimlane;childLayout=stackLayout;horizontal=1;startSize=50;horizontalStack=0;rounded=1;fontSize=14;fontStyle=0;strokeWidth=2;resizeParent=0;resizeLast=1;shadow=0;dashed=0;align=center;arcSize=4;whiteSpace=wrap;html=1;" parent="q9Yz6l3v0b8t_S9yL232-1" vertex="1">
          <mxGeometry x="350" y="160" width="185" height="150" as="geometry" />
        </mxCell>
        <mxCell id="q9Yz6l3v0b8t_S9yL232-6" value="Airport_name {PPK}&lt;div&gt;Airport_abbreviation {PPK}&lt;/div&gt;&lt;div&gt;City_name&lt;/div&gt;&lt;div&gt;Country_name&lt;/div&gt;" style="align=center;strokeColor=none;fillColor=none;spacingLeft=4;fontSize=12;verticalAlign=top;resizable=0;rotatable=0;part=1;html=1;" parent="q9Yz6l3v0b8t_S9yL232-5" vertex="1">
          <mxGeometry y="50" width="185" height="100" as="geometry" />
        </mxCell>
        <mxCell id="q9Yz6l3v0b8t_S9yL232-7" style="rounded=0;orthogonalLoop=1;jettySize=auto;html=1;entryX=1;entryY=0.5;entryDx=0;entryDy=0;endArrow=none;endFill=0;" parent="q9Yz6l3v0b8t_S9yL232-1" source="q9Yz6l3v0b8t_S9yL232-6" target="q9Yz6l3v0b8t_S9yL232-3" edge="1">
          <mxGeometry relative="1" as="geometry" />
        </mxCell>
        <mxCell id="q9Yz6l3v0b8t_S9yL232-8" value="has many" style="edgeLabel;html=1;align=center;verticalAlign=middle;resizable=0;points=[];" parent="q9Yz6l3v0b8t_S9yL232-7" vertex="1" connectable="0">
          <mxGeometry x="0.1333" y="-1" relative="1" as="geometry">
            <mxPoint as="offset" />
          </mxGeometry>
        </mxCell>
        <mxCell id="q9Yz6l3v0b8t_S9yL232-9" value="" style="verticalLabelPosition=bottom;verticalAlign=top;html=1;shape=mxgraph.basic.acute_triangle;dx=0.5;rotation=-90;fillColor=#000000;" parent="q9Yz6l3v0b8t_S9yL232-1" vertex="1">
          <mxGeometry x="230" y="225" width="30" height="20" as="geometry" />
        </mxCell>
        <mxCell id="q9Yz6l3v0b8t_S9yL232-10" value="1..*" style="text;html=1;align=center;verticalAlign=middle;resizable=0;points=[];autosize=1;strokeColor=none;fillColor=none;" parent="q9Yz6l3v0b8t_S9yL232-1" vertex="1">
          <mxGeometry x="170" y="238" width="40" height="30" as="geometry" />
        </mxCell>
        <mxCell id="q9Yz6l3v0b8t_S9yL232-11" value="1..1" style="text;html=1;align=center;verticalAlign=middle;resizable=0;points=[];autosize=1;strokeColor=none;fillColor=none;" parent="q9Yz6l3v0b8t_S9yL232-1" vertex="1">
          <mxGeometry x="310" y="238" width="40" height="30" as="geometry" />
        </mxCell>
        <mxCell id="q9Yz6l3v0b8t_S9yL232-22" value="&lt;b&gt;&lt;font style=&quot;font-size: 24px;&quot;&gt;2.&lt;/font&gt;&lt;/b&gt;" style="text;html=1;align=center;verticalAlign=middle;resizable=0;points=[];autosize=1;strokeColor=none;fillColor=none;" parent="q9Yz6l3v0b8t_S9yL232-1" vertex="1">
          <mxGeometry x="40" y="93" width="40" height="40" as="geometry" />
        </mxCell>
      </root>
    </mxGraphModel>
  </diagram>
  <diagram id="c9yg0IdVGPDmuo2jDVdM" name="Page-3">
    <mxGraphModel dx="1266" dy="675" grid="1" gridSize="10" guides="1" tooltips="1" connect="1" arrows="1" fold="1" page="1" pageScale="1" pageWidth="850" pageHeight="1100" math="0" shadow="0">
      <root>
        <mxCell id="0" />
        <mxCell id="1" parent="0" />
        <mxCell id="GmfiSUljz8vFu2RgrVlF-1" value="Runway" style="swimlane;childLayout=stackLayout;horizontal=1;startSize=50;horizontalStack=0;rounded=1;fontSize=14;fontStyle=0;strokeWidth=2;resizeParent=0;resizeLast=1;shadow=0;dashed=0;align=center;arcSize=4;whiteSpace=wrap;html=1;" parent="1" vertex="1">
          <mxGeometry x="30" y="160" width="150" height="150" as="geometry" />
        </mxCell>
        <mxCell id="GmfiSUljz8vFu2RgrVlF-2" value="&lt;div style=&quot;&quot;&gt;&lt;span style=&quot;background-color: transparent; color: light-dark(rgb(0, 0, 0), rgb(255, 255, 255));&quot;&gt;Latitude {PPK}&lt;/span&gt;&lt;br&gt;&lt;/div&gt;&lt;div style=&quot;&quot;&gt;Longitude {PPK}&lt;/div&gt;&lt;div style=&quot;&quot;&gt;&lt;div&gt;&lt;span style=&quot;background-color: transparent; color: light-dark(rgb(0, 0, 0), rgb(255, 255, 255));&quot;&gt;Airport_name {PAK}&lt;/span&gt;&lt;/div&gt;&lt;div&gt;Runway_number {PAK}&lt;/div&gt;&lt;/div&gt;&lt;div style=&quot;&quot;&gt;Length_of_runway&amp;nbsp;&lt;/div&gt;&lt;div style=&quot;&quot;&gt;Width_of_runway&lt;/div&gt;" style="align=center;strokeColor=none;fillColor=none;spacingLeft=4;fontSize=12;verticalAlign=top;resizable=0;rotatable=0;part=1;html=1;" parent="GmfiSUljz8vFu2RgrVlF-1" vertex="1">
          <mxGeometry y="50" width="150" height="100" as="geometry" />
        </mxCell>
        <mxCell id="GmfiSUljz8vFu2RgrVlF-3" style="edgeStyle=orthogonalEdgeStyle;rounded=0;orthogonalLoop=1;jettySize=auto;html=1;exitX=0.5;exitY=1;exitDx=0;exitDy=0;" parent="GmfiSUljz8vFu2RgrVlF-1" source="GmfiSUljz8vFu2RgrVlF-2" target="GmfiSUljz8vFu2RgrVlF-2" edge="1">
          <mxGeometry relative="1" as="geometry" />
        </mxCell>
        <mxCell id="GmfiSUljz8vFu2RgrVlF-4" value="&lt;b&gt;&lt;font style=&quot;font-size: 24px;&quot;&gt;1.&lt;/font&gt;&lt;/b&gt;" style="text;html=1;align=center;verticalAlign=middle;resizable=0;points=[];autosize=1;strokeColor=none;fillColor=none;" parent="1" vertex="1">
          <mxGeometry x="20" y="103" width="40" height="40" as="geometry" />
        </mxCell>
      </root>
    </mxGraphModel>
  </diagram>
</mxfile>
